<svg version="1.2" xmlns="http://www.w3.org/2000/svg" viewBox="0 0 800 800" width="800" height="800">
	<title>snowflake_009-ai</title>
	<style>
		.s0 { fill: #ffffff } 
		.s1 { fill: #26a6ff } 
	</style>
	<g id="_Artboards_">
	</g>
	<g id="Layer 2">
		<g id="&lt;Group&gt;">
			<path id="&lt;Compound Path&gt;" fill-rule="evenodd" class="s0" d="m661 545.1l-4.8 8.4-90-51.9-0.9 92.6-9.6-5.5 0.9-92.7-70.8-40.9-0.5 51.4v41.2l-35.7-20.6-44.8-25.2v81.7l80.7 45.5v11.2l-80.7-45.6v103.9h-9.7v-103.9l-80.6 45.6v-11.2l80.6-45.5v-81.7l-44.4 25-36 20.8v-41.3l-0.5-51.3-70.8 40.9 0.9 92.7-9.6 5.5-0.9-92.6-90 51.9-4.9-8.4 90-51.9-79.8-47.1 9.7-5.6 79.8 47.1 70.8-40.9-44.2-26-35.8-20.7 35.6-20.6 44.4-26.1-39.3-22.7-31.5-18.2-79.8 47.1-9.7-5.6 79.8-47.1-90-51.9 4.9-8.4 90 51.9 0.9-92.6 9.6 5.5-0.3 37.9-0.6 54.8 70.8 40.9 0.5-51.4v-41.2l35.7 20.6 44.7 25.2v-81.7l-80.6-45.5v-11.2l80.6 45.6v-103.9h9.7v103.9l80.7-45.6v11.2l-80.7 45.5v81.7l45-25.4 35.5-20.4v40.8l0.5 51.8 70.8-40.9-0.9-92.7 9.6-5.5 0.9 92.6 90-51.9 4.8 8.4-89.9 51.9 79.8 47.1-9.7 5.6-79.8-47.1-70.8 40.9 44.2 26 35.8 20.7-35.6 20.5-44.4 26.2 70.8 40.9 37-21.8 42.8-25.3 9.7 5.6-79.8 47.1 23 13.3zm-185.4-95.9l-7.8-4.5-63-36.3v81.6l70.8 40.9zm75.6-49.2l-36.9-21.3-33.9-19.6-7.8 4.5-62.9 36.4 70.7 40.8 5.4-3.1zm-146.4-8.4l23.4-13.5 47.4-27.3v-81.7l-70.8 40.8zm-9.7-81.6l-70.7-40.9v81.7l10.4 6 60.3 34.9zm-75.6 130.9l70.8-40.9-23.3-13.4-47.4-27.4-70.8 40.8 39.9 23zm75.6-32.4l-23.4 13.5-47.4 27.4v81.6l70.8-40.8zm-75.6-24.6l28 16.2-28 16.1-20.2-11.6-7.8-4.5zm26.2 77.7l28-16.1v32.3l-28 16.1zm0-123.1v-32.3l28 16.1v32.3zm108.4 0.1l-28 16.1v-32.3l28-16.2zm-28 107l28 16.2v32.3l-28-16.2zm77.4-48.1l4.8 2.7-28 16.2-28-16.2 28-16.1z"/>
			<path id="&lt;Compound Path&gt;" fill-rule="evenodd" class="s1" d="m613.5 493l76.7 44.3-26.2 45.4-76.8-44.3-0.7 74.3-0.2 18.3-52.1-30.1 0.9-92.6-28.3-16.4-0.1 14.7v78.2l-67.7-39.1-12.8-7.2v32.6l80.7 45.6v60.2l-80.7-45.6v88.7h-52.4v-88.7l-80.7 45.6v-60.2l80.7-45.6v-32.6l-12.5 7-68 39.3v-78.3l-0.1-14.6-28.3 16.4 0.9 92.6-52.1 30.1-0.9-92.6-76.8 44.3-26.2-45.4 76.7-44.3-79.8-47.1 52.2-30.2 79.8 47.1 28.3-16.3-12.6-7.4-36-20.8-31.7-18.3 67.6-39 12.7-7.5-7.6-4.4-20.7-11.9-79.8 47.1-52.2-30.2 79.8-47.1-76.7-44.3 26.2-45.4 76.8 44.3 0.9-92.6 52.1 30.1-0.5 50.3-0.4 42.3 28.3 16.4 0.1-14.7v-78.1l67.7 39 12.8 7.2v-32.6l-80.7-45.6v-60.2l80.7 45.6v-88.7h52.4v88.7l80.7-45.6v60.2l-80.7 45.6v32.6l13-7.3 67.5-38.9v77.7l0.1 15 28.3-16.3-0.9-92.6 52.1-30.1 0.9 92.6 76.8-44.3 26.2 45.4-76.7 44.3 79.8 47.1-52.2 30.2-79.8-47.1-28.3 16.3 12.6 7.4 67.7 39.1-67.5 39-12.8 7.5 28.3 16.3 26.2-15.4 53.6-31.7 52.2 30.2zm-19.4 13.5l-23-13.3 79.8-47.1-9.7-5.6-42.8 25.3-37 21.8-70.8-40.9 44.4-26.2 35.6-20.5-35.8-20.7-44.2-26 70.8-40.9 79.8 47.1 9.7-5.6-79.8-47.1 89.9-51.9-4.8-8.4-90 51.9-0.9-92.6-9.6 5.5 0.9 92.7-70.8 40.9-0.5-51.8v-40.8l-35.5 20.5-44.9 25.3v-81.7l80.6-45.5v-11.2l-80.6 45.6v-103.9h-9.8v103.9l-80.6-45.6v11.2l80.6 45.5v81.7l-44.7-25.2-35.7-20.6v41.2l-0.5 51.4-70.8-40.9 0.6-54.8 0.3-37.8-9.6-5.6-0.9 92.6-90-51.9-4.8 8.4 89.9 51.9-79.8 47.1 9.7 5.6 79.8-47.1 31.5 18.2 39.3 22.7-44.4 26.1-35.6 20.6 35.8 20.7 44.2 26-70.8 40.9-79.8-47.1-9.7 5.6 79.8 47.1-90 51.9 4.9 8.4 90-51.9 0.9 92.6 9.6-5.5-0.9-92.7 70.8-40.9 0.5 51.3v41.3l36-20.8 44.4-25v81.7l-80.6 45.5v11.2l80.6-45.6v103.9h9.8v-103.9l80.6 45.6v-11.2l-80.6-45.5v-81.7l44.7 25.2 35.7 20.6v-41.2l0.5-51.4 70.8 40.9-0.9 92.7 9.6 5.5 0.9-92.6 90 51.9 4.8-8.4zm-203.8-106.5l-70.7 40.9-30.9-17.9-39.9-23 70.8-40.8 47.4 27.4zm-42.8 0l-27.9-16.2-28 16.2 7.7 4.5 20.2 11.6zm203.7 0l-65.4 37.8-5.4 3.1-70.7-40.9 63-36.3 7.7-4.5 33.9 19.6zm-42.7 0l-4.9-2.8-23.1-13.4-28 16.2 28 16.1zm-136.6 21.9l23.3-13.5v81.7l-70.8 40.8 0.1-81.6zm1.9 23.5l-28 16.2v32.3l28-16.2zm94-0.7l7.8 4.5v81.7l-70.7-40.8v-81.7zm-13.6 16.9l-28-16.2v32.3l28 16.2zm-129.8-192.5l70.7 40.8v81.7l-60.3-34.8-10.4-6zm21.4 37v32.3l27.9 16.1v-32.3zm82.4 72l-23.3 13.5v-81.7l70.7-40.8v81.7zm-1.9-23.6l28-16.1v-32.4l-28 16.2z"/>
		</g>
	</g>
</svg>